<svg id="svg" version="1.1" xmlns="http://www.w3.org/2000/svg" style="display: block;" viewBox="0 0 300 227"><path d="M0 0 C2.63652524 0.00346358 5.27298846 0.0000004 7.90951252 -0.00346375 C111.24644652 0.02346128 190.40628426 24.37261047 190.13664722 141.87846375 C190.13966846 143.19509821 190.1426897 144.51173267 190.1458025 145.86826515 C189.87733944 262.78633331 106.08963709 283.88939078 5.27329445 283.75692749 C2.63676921 283.75346391 0.00030599 283.75692709 -2.63621807 283.76039124 C-105.97315207 283.73346621 -185.13298981 259.38431702 -184.86335278 141.87846375 C-184.86637402 140.56182928 -184.86939526 139.24519482 -184.87250805 137.88866234 C-184.60404499 20.97059418 -100.81634264 -0.13246329 0 0 Z " transform="translate(147.36335277557373,-28.378463745117188)" style="fill: #FDFEFD;"/><path d="M0 0 C18.48025629 1.51892517 26.19340456 18.73236029 24.5625 35.375 C23 39.5625 23 39.5625 21.5625 42.375 C22.81755959 47.39523836 24.34455664 47.67551625 28.5625 50.375 C34.99514428 58.95185904 32.11194988 67.81456121 25.5625 75.375 C24.5725 76.550625 23.5825 77.72625 22.5625 78.9375 C1.93157183 98.47780642 -25.08045089 98.47667499 -48.4375 85.375 C-48.51906579 89.02129287 -48.57827504 92.66572832 -48.625 96.3125 C-48.65013672 97.33408203 -48.67527344 98.35566406 -48.70117188 99.40820312 C-48.79135219 108.81701557 -46.9950288 115.59445968 -41.4375 123.375 C-41.1075 124.365 -40.7775 125.355 -40.4375 126.375 C-38.4575 127.365 -38.4575 127.365 -36.4375 128.375 C-35.72335938 128.80296875 -35.00921875 129.2309375 -34.2734375 129.671875 C-25.80903152 134.6699052 -16.77382 137.43578815 -7.4375 140.375 C8.5625 145.57730513 8.5625 145.57730513 8.5625 147.375 C7.78793457 147.31513916 7.01336914 147.25527832 6.21533203 147.19360352 C3.91738511 147.01637646 1.61936392 146.84011107 -0.67871094 146.66455078 C-3.04686866 146.4821245 -5.41475507 146.29610627 -7.78222656 146.10498047 C-52.63293975 142.55587857 -102.18192536 140.32062327 -146.38671875 149.66796875 C-150.4375 150.375 -150.4375 150.375 -154.4375 149.375 C-141.0378375 143.60283769 -127.28041021 140.76135869 -112.875 138.75 C-111.38355469 138.53762695 -109.89210937 138.32525391 -108.35546875 138.10644531 C-88.04821235 135.27379385 -67.9252167 133.99386585 -47.4375 133.375 C-47.84379639 132.72128418 -48.25009277 132.06756836 -48.66870117 131.39404297 C-51.44110653 126.86768388 -54.04745605 122.55513048 -55.75 117.5 C-56.05550781 116.61570312 -56.36101562 115.73140625 -56.67578125 114.8203125 C-60.67403885 101.98488042 -58.99522945 87.12353055 -55.4375 74.375 C-55.2209375 73.52164063 -55.004375 72.66828125 -54.78125 71.7890625 C-51.13649087 58.38155572 -44.85632184 41.86770434 -34.4375 32.375 C-35.55507596 36.84530382 -37.3906249 40.77629721 -39.3125 44.9375 C-49.41777612 67.27123525 -46.997978 75.90397087 -23.57421875 85.5546875 C-8.16387326 90.34901721 14.74714118 87.61384878 21.5625 70.375 C24.21016653 58.63571385 19.46558642 53.75490398 7.625 51.6875 C6.614375 51.584375 5.60375 51.48125 4.5625 51.375 C5.02140625 50.68535156 5.4803125 49.99570313 5.953125 49.28515625 C17.35405257 31.82449196 20.89552247 15.92090748 0.5625 3.375 C-1.4175 2.385 -1.4175 2.385 -3.4375 1.375 C-3.4375 0.375 -3.4375 0.375 0 0 Z " transform="translate(213.4375,63.625)" style="fill: #6AA643;"/><path d="M0 0 C-1.25004783 7.81279894 -6.24167177 13.17595763 -13.75 15.6875 C-13.42 14.800625 -13.09 13.91375 -12.75 13 C-10.19755685 1.99258893 -9.95583678 -11.46575324 -23.6953125 -13.81640625 C-37.40190553 -14.06898475 -47.87994078 -7.38288386 -54.9375 4.3125 C-58.55721112 9.05556975 -65.80556984 2.47983278 -70.12890625 0.02734375 C-80.72519323 -5.38923812 -94.55743428 -3.20692429 -103.75 3.6875 C-104.41 3.6875 -105.07 3.6875 -105.75 3.6875 C-106.41 5.0075 -107.07 6.3275 -107.75 7.6875 C-108.23597656 8.50863281 -108.72195312 9.32976563 -109.22265625 10.17578125 C-112.67832163 16.31446938 -113.94347412 20.35322017 -113.625 27.4375 C-113.80974912 36.49944425 -119.06267418 37.75712122 -126.7734375 40.94140625 C-141.98404085 47.6203254 -144.63770433 64.81697775 -138.36328125 78.69140625 C-134.00559873 86.78424521 -128.32554339 92.59574133 -120.75 97.6875 C-119.4815625 98.55375 -119.4815625 98.55375 -118.1875 99.4375 C-112.19847848 102.50879309 -106.52915261 102.9384278 -99.875 102.875 C-97.62042969 102.86533203 -97.62042969 102.86533203 -95.3203125 102.85546875 C-91.9357889 103.09765416 -91.9357889 103.09765416 -90.75 101.6875 C-89.1 101.6875 -87.45 101.6875 -85.75 101.6875 C-87.1903911 111.77023771 -93.60833148 116.66232239 -103.75 114.6875 C-113.47033454 110.88004102 -122.08901982 105.7631761 -129.75 98.6875 C-130.60207031 97.90375 -131.45414063 97.12 -132.33203125 96.3125 C-148.430906 80.86530384 -163.25065145 55.00611456 -143.625 36.4375 C-140.23989691 33.58628901 -136.86507457 31.70197976 -132.875 29.8125 C-127.61190433 27.11890457 -126.57170118 24.91825317 -125.39453125 19.26953125 C-120.57719576 -0.02900666 -97.22980833 -8.70315093 -79.625 -8.5625 C-78.16126953 -8.57410156 -78.16126953 -8.57410156 -76.66796875 -8.5859375 C-75.72308594 -8.58335938 -74.77820313 -8.58078125 -73.8046875 -8.578125 C-72.52827393 -8.57474121 -72.52827393 -8.57474121 -71.22607422 -8.57128906 C-68.44881104 -8.28102097 -66.31738195 -7.37756528 -63.75 -6.3125 C-59.70250891 -6.57620018 -57.82643044 -7.80460894 -55 -10.625 C-40.18440007 -24.26431412 -4.15644674 -23.89956877 0 0 Z " transform="translate(211.75,50.3125)" style="fill: #68A840;"/><path d="M0 0 C27.6698626 14.64875079 31.42031207 49.18454098 18.02734375 74.78125 C12.13639037 84.13413167 5.05308336 88.44212333 -6 88 C-3 85 -3 85 0.8125 82.25 C23.31574299 65.35196039 22.54009908 31.55683678 8 10 C5.46431598 7.13338773 2.8091345 4.60848204 0 2 C0 1.34 0 0.68 0 0 Z " transform="translate(116,105)" style="fill: #659D3D;"/></svg>